<?xml version="1.0" standalone="no"?><svg xmlns="http://www.w3.org/2000/svg" viewBox="0 0 1440 320"><path fill="#434141" fill-opacity="1" d="M0,224L24,213.3C48,203,96,181,144,160C192,139,240,117,288,144C336,171,384,245,432,272C480,299,528,277,576,234.7C624,192,672,128,720,128C768,128,816,192,864,224C912,256,960,256,1008,250.7C1056,245,1104,235,1152,218.7C1200,203,1248,181,1296,165.3C1344,149,1392,139,1416,133.3L1440,128L1440,320L1416,320C1392,320,1344,320,1296,320C1248,320,1200,320,1152,320C1104,320,1056,320,1008,320C960,320,912,320,864,320C816,320,768,320,720,320C672,320,624,320,576,320C528,320,480,320,432,320C384,320,336,320,288,320C240,320,192,320,144,320C96,320,48,320,24,320L0,320Z"></path></svg>